<svg width="404" height="1712" viewBox="0 0 404 1712" fill="none" xmlns="http://www.w3.org/2000/svg">
<g clip-path="url(#clip0_30_76)">
<path d="M379.272 1108.96C398.243 1134.37 423.827 1154.08 453.232 1165.94C482.638 1177.81 514.736 1181.36 546.025 1176.23C526.966 1150.92 501.37 1131.28 471.99 1119.43C442.61 1107.58 410.555 1103.96 379.272 1108.96Z" fill="#E0BDC7"/>
<path d="M524.932 710.912C437.231 656.785 370.991 573.935 337.485 476.462C320.504 428.264 313.82 377.04 317.865 326.097C321.909 275.155 336.592 225.627 360.966 180.713L363.354 176.733L360.568 180.713C334.073 225.128 317.729 274.854 312.706 326.329C307.683 377.804 314.106 429.752 331.515 478.452C366.261 576.633 434.08 659.663 523.34 713.3C525.728 713.3 527.718 716.087 528.514 713.3C529.31 710.514 527.32 710.912 524.932 710.912Z" fill="#E0BDC7"/>
<path d="M161.181 579.954C278.393 589.107 391.109 629.066 487.92 695.786C585.118 760.88 670.908 841.574 741.83 934.614C813.986 1026.64 870.216 1130.1 908.184 1240.71C947.137 1350.9 955.93 1469.5 933.655 1584.23C933.655 1590.2 931.267 1595.37 933.655 1596.17C936.043 1596.96 937.237 1591.79 938.828 1585.82C962.355 1469.8 954.664 1349.61 916.542 1237.53C880.334 1124.93 824.855 1019.47 752.575 925.857C681.127 831.734 593.702 750.897 494.288 687.029C395.445 620.996 279.996 584.161 161.181 580.75V579.954Z" fill="#E0BDC7"/>
<path d="M0.397949 573.586C21.6563 561.687 45.7679 555.841 70.1141 556.683C94.4603 557.525 118.11 565.023 138.496 578.362C117.265 590.347 93.1401 596.243 68.7754 595.4C44.4107 594.557 20.7504 587.009 0.397949 573.586Z" fill="#E0BDC7"/>
<path d="M60.0945 679.864C64.1469 658.318 74.0518 638.303 88.7235 622.014C103.395 605.725 122.268 593.79 143.272 587.517C139.219 609.064 129.314 629.078 114.643 645.368C99.9709 661.657 81.0987 673.592 60.0945 679.864Z" fill="#E0BDC7"/>
<path d="M165.559 698.971C153.418 684.184 145.494 666.395 142.622 647.479C139.75 628.563 142.037 609.222 149.242 591.498C161.382 606.284 169.306 624.074 172.178 642.99C175.05 661.906 172.763 681.246 165.559 698.971Z" fill="#E0BDC7"/>
<path d="M66.0642 472.084C86.6305 479.765 104.681 492.969 118.232 510.244C131.783 527.519 140.309 548.196 142.874 570.003C122.308 562.322 104.257 549.118 90.706 531.843C77.1551 514.568 68.6287 493.891 66.0642 472.084Z" fill="#E0BDC7"/>
<path d="M172.324 458.152C179.032 476.284 180.687 495.899 177.112 514.899C173.537 533.899 164.866 551.57 152.027 566.023C145.232 547.904 143.53 528.269 147.109 509.251C150.687 490.234 159.408 472.56 172.324 458.152Z" fill="#E0BDC7"/>
<path fill-rule="evenodd" clip-rule="evenodd" d="M157.599 573.984C156.996 572.929 156.181 572.011 155.205 571.288C154.229 570.565 153.112 570.053 151.928 569.785C150.743 569.517 149.515 569.498 148.323 569.731C147.13 569.963 145.999 570.44 145.002 571.133C144.004 571.827 143.161 572.72 142.527 573.756C141.893 574.792 141.482 575.949 141.319 577.153C141.156 578.357 141.246 579.582 141.582 580.75C141.918 581.917 142.494 583.002 143.272 583.935C144.673 585.616 146.654 586.711 148.823 587.004C150.992 587.298 153.192 586.768 154.99 585.519C156.787 584.27 158.052 582.394 158.535 580.258C159.018 578.123 158.684 575.885 157.599 573.984Z" fill="#E0BDC7"/>
<path d="M427.825 90.3566C411.601 97.8583 397.729 109.642 387.701 124.441C377.674 139.24 371.87 156.493 370.915 174.345C387.06 166.737 400.863 154.926 410.876 140.15C420.888 125.373 426.743 108.174 427.825 90.3566Z" fill="#E0BDC7"/>
<path d="M466.031 171.558C451.338 164.819 435.084 162.22 419.023 164.044C402.961 165.868 387.703 172.045 374.895 181.907C389.567 188.735 405.839 191.382 421.919 189.556C437.998 187.73 453.263 181.502 466.031 171.558Z" fill="#E0BDC7"/>
<path d="M430.612 243.207C426.748 229.418 419.238 216.927 408.872 207.05C398.506 197.172 385.668 190.274 371.711 187.082C375.574 200.871 383.085 213.362 393.451 223.239C403.817 233.117 416.655 240.015 430.612 243.207Z" fill="#E0BDC7"/>
<path d="M339.076 86.3762C334.941 102.066 335.165 118.586 339.724 134.158C344.282 149.729 353.002 163.761 364.945 174.743C369.17 159.058 368.991 142.512 364.427 126.923C359.864 111.334 351.092 97.3045 339.076 86.3762Z" fill="#E0BDC7"/>
<path d="M284.554 143.695C292.869 155.457 304.22 164.742 317.396 170.561C330.573 176.379 345.08 178.512 359.373 176.733C351.058 164.971 339.707 155.686 326.531 149.867C313.354 144.049 298.847 141.916 284.554 143.695Z" fill="#E0BDC7"/>
<path fill-rule="evenodd" clip-rule="evenodd" d="M360.568 184.694C360.255 183.885 360.11 183.022 360.143 182.156C360.175 181.29 360.384 180.439 360.757 179.657C361.129 178.874 361.658 178.176 362.309 177.605C362.961 177.033 363.723 176.601 364.547 176.335C366.131 175.827 367.85 175.96 369.338 176.704C370.825 177.447 371.963 178.744 372.507 180.315C372.848 181.11 373.024 181.967 373.023 182.832C373.023 183.698 372.846 184.554 372.504 185.349C372.161 186.143 371.661 186.86 371.032 187.455C370.403 188.049 369.66 188.51 368.848 188.808C368.036 189.106 367.171 189.235 366.307 189.187C365.443 189.14 364.598 188.917 363.823 188.532C363.048 188.147 362.36 187.608 361.8 186.948C361.24 186.288 360.821 185.521 360.568 184.694Z" fill="#E0BDC7"/>
<path d="M301.269 257.536L294.105 253.158C291.352 251.688 288.404 250.616 285.35 249.974C282.046 249.557 278.704 249.557 275.4 249.974C273.695 250.14 272.04 250.648 270.536 251.469C269.031 252.29 267.708 253.406 266.645 254.75C268.977 256.119 270.795 258.217 271.819 260.721C272.864 262.796 274.062 264.792 275.4 266.691L279.38 272.662L285.35 278.235C293.768 284.654 303.851 288.522 314.402 289.38C315.222 283.385 314.439 277.279 312.132 271.686C309.825 266.092 306.077 261.21 301.269 257.536Z" fill="#E0BDC7"/>
<path d="M347.434 337.942C343.989 339.559 340.664 341.421 337.485 343.515C334.079 345.73 330.998 348.41 328.331 351.475C325.347 354.919 322.929 358.816 321.168 363.019C320.281 365.095 319.824 367.329 319.824 369.587C319.824 371.844 320.281 374.078 321.168 376.154C324.276 374.281 327.9 373.445 331.515 373.766H341.066C344.237 374.179 347.448 374.179 350.618 373.766C354.167 373.261 357.642 372.325 360.965 370.98C374.039 365.356 385.227 356.1 393.202 344.311C386.769 339.393 379.174 336.223 371.155 335.107C363.136 333.991 354.965 334.967 347.434 337.942Z" fill="#E0BDC7"/>
<path d="M360.965 644.04C338.539 646.543 317.578 656.423 301.372 672.128C285.166 687.833 274.631 708.474 271.42 730.814C329.525 678.67 411.111 642.846 482.746 691.01L474.787 682.651C464.927 673.208 453.811 665.172 441.755 658.768C417.091 645.347 388.777 640.186 360.965 644.04Z" fill="#E0BDC7"/>
<path d="M256.297 830.326C295.044 805.087 338.669 788.287 384.334 781.017C429.999 773.748 476.683 776.172 521.35 788.133C611.13 811.669 690.095 865.353 745.013 940.187C745.013 940.187 747.799 943.769 748.993 942.575C750.187 941.381 748.993 940.187 748.993 938.595C694.176 862.386 614.759 807.417 524.136 782.958C478.794 770.294 431.188 767.976 384.83 776.174C338.473 784.373 294.548 802.879 256.297 830.326L252.715 833.112L256.297 830.326Z" fill="#E0BDC7"/>
<path d="M177.498 892.819C183.078 877.567 192.754 864.148 205.462 854.036C218.169 843.924 233.418 837.511 249.532 835.501C243.99 850.777 234.326 864.22 221.61 874.338C208.895 884.455 193.627 890.852 177.498 892.819Z" fill="#E0BDC7"/>
<path d="M253.512 921.081C246.276 908.39 242.671 893.952 243.092 879.349C243.513 864.745 247.944 850.54 255.9 838.287C263.135 850.978 266.74 865.416 266.319 880.019C265.898 894.622 261.467 908.828 253.512 921.081Z" fill="#E0BDC7"/>
<path d="M315.198 885.256C302.433 882.81 290.562 876.974 280.829 868.36C271.096 859.745 263.86 848.671 259.879 836.297C272.693 838.62 284.626 844.413 294.379 853.045C304.132 861.677 311.332 872.818 315.198 885.256Z" fill="#E0BDC7"/>
<path d="M167.15 813.21C180.695 808.581 195.236 807.691 209.244 810.633C223.252 813.575 236.207 820.241 246.746 829.928C233.201 834.557 218.66 835.447 204.652 832.505C190.644 829.562 177.689 822.897 167.15 813.21Z" fill="#E0BDC7"/>
<path d="M214.908 759.872C226.047 766.529 235.181 776.072 241.346 787.492C247.51 798.913 250.476 811.786 249.93 824.753C238.639 818.264 229.38 808.755 223.194 797.294C217.007 785.833 214.138 772.874 214.908 759.872Z" fill="#E0BDC7"/>
<path fill-rule="evenodd" clip-rule="evenodd" d="M257.093 825.151C255.622 824.865 254.096 825.108 252.786 825.836C251.476 826.564 250.464 827.731 249.929 829.132C249.569 830.662 249.827 832.273 250.646 833.614C251.466 834.955 252.781 835.919 254.307 836.297C255.784 836.673 257.348 836.47 258.68 835.73C260.012 834.99 261.01 833.769 261.471 832.316C261.831 830.786 261.574 829.175 260.754 827.834C259.934 826.493 258.619 825.529 257.093 825.151Z" fill="#E0BDC7"/>
<path d="M321.964 771.415C320.135 769.626 318.531 767.621 317.188 765.444C315.756 762.905 314.557 760.24 313.606 757.483C312.43 755.381 311.622 753.092 311.218 750.717C311.149 749.239 311.398 747.764 311.947 746.391C312.496 745.018 313.334 743.778 314.402 742.756C316.01 744.675 318.058 746.178 320.372 747.134L325.943 749.92L331.913 753.105L337.087 757.881C343.523 765.037 347.8 773.87 349.424 783.356C344.211 783.843 338.96 783.004 334.159 780.916C329.358 778.828 325.163 775.56 321.964 771.415Z" fill="#E0BDC7"/>
<path d="M397.579 807.239C398.664 803.96 399.995 800.766 401.559 797.686C403.553 794.45 405.816 791.387 408.325 788.531C411.16 785.71 414.375 783.298 417.876 781.366C421.739 780 425.953 780 429.815 781.366C429.199 784.431 429.475 787.609 430.611 790.521C430.808 793.304 430.808 796.097 430.611 798.88C430.811 801.796 430.811 804.722 430.611 807.637C430.877 810.816 430.877 814.012 430.611 817.19C426.37 829.388 418.785 840.146 408.723 848.238C403.371 843.025 399.514 836.471 397.554 829.261C395.594 822.05 395.603 814.445 397.579 807.239Z" fill="#E0BDC7"/>
<path d="M94.3206 236.042C94.3206 235.569 94.1806 235.108 93.9182 234.715C93.6558 234.322 93.283 234.016 92.8467 233.835C92.4103 233.655 91.9302 233.607 91.467 233.699C91.0038 233.792 90.5783 234.019 90.2444 234.353C89.9104 234.687 89.6829 235.113 89.5908 235.576C89.4987 236.039 89.546 236.519 89.7267 236.956C89.9074 237.392 90.2135 237.765 90.6062 238.028C90.9988 238.29 91.4606 238.43 91.9329 238.43C92.5662 238.43 93.1734 238.179 93.6212 237.731C94.069 237.283 94.3206 236.675 94.3206 236.042Z" fill="#E0BDC7"/>
<path d="M106.26 254.352C106.26 253.402 105.883 252.491 105.211 251.819C104.539 251.147 103.628 250.77 102.678 250.77C101.728 250.77 100.817 251.147 100.145 251.819C99.4738 252.491 99.0963 253.402 99.0963 254.352C99.0927 254.806 99.1863 255.255 99.3706 255.67C99.5549 256.085 99.8257 256.455 100.165 256.757C100.504 257.059 100.904 257.284 101.337 257.419C101.771 257.553 102.228 257.593 102.678 257.536C103.563 257.542 104.419 257.22 105.08 256.632C105.741 256.044 106.162 255.232 106.26 254.352Z" fill="#E0BDC7"/>
<path d="M130.935 273.06C130.756 271.896 130.185 270.827 129.317 270.031C128.448 269.235 127.334 268.759 126.159 268.682C125.549 268.679 124.945 268.804 124.386 269.049C123.827 269.293 123.326 269.652 122.914 270.101C122.501 270.551 122.188 271.082 121.993 271.66C121.798 272.238 121.726 272.851 121.781 273.458C121.781 274.62 122.242 275.733 123.063 276.554C123.884 277.375 124.998 277.837 126.159 277.837C127.425 277.837 128.64 277.334 129.536 276.438C130.431 275.542 130.935 274.327 130.935 273.06Z" fill="#E0BDC7"/>
<path d="M90.3408 302.118C90.3444 301.664 90.2509 301.214 90.0667 300.8C89.8824 300.385 89.6116 300.014 89.2724 299.713C88.9332 299.411 88.5334 299.186 88.0999 299.051C87.6664 298.917 87.2093 298.877 86.759 298.933C85.8742 298.928 85.0185 299.25 84.3572 299.838C83.6958 300.426 83.2755 301.238 83.1772 302.118C83.1772 303.068 83.5546 303.979 84.2263 304.651C84.898 305.323 85.8091 305.7 86.759 305.7C87.709 305.7 88.6201 305.323 89.2918 304.651C89.9635 303.979 90.3408 303.068 90.3408 302.118Z" fill="#E0BDC7"/>
<path d="M114.617 321.224C114.617 320.544 114.484 319.872 114.224 319.244C113.964 318.616 113.582 318.045 113.102 317.565C112.622 317.084 112.051 316.703 111.424 316.443C110.796 316.183 110.123 316.049 109.444 316.049C108.711 315.977 107.972 316.075 107.283 316.336C106.595 316.597 105.976 317.013 105.475 317.553C104.974 318.092 104.605 318.74 104.396 319.446C104.187 320.152 104.144 320.897 104.27 321.622C104.27 322.994 104.815 324.311 105.785 325.281C106.756 326.251 108.072 326.797 109.444 326.797C110.158 326.799 110.865 326.653 111.52 326.368C112.175 326.084 112.764 325.667 113.25 325.143C113.736 324.62 114.109 324.001 114.344 323.327C114.579 322.652 114.672 321.936 114.617 321.224Z" fill="#E0BDC7"/>
<path d="M112.23 355.456C112.302 354.723 112.204 353.984 111.943 353.295C111.682 352.607 111.266 351.988 110.727 351.487C110.187 350.986 109.539 350.616 108.833 350.407C108.128 350.198 107.383 350.155 106.658 350.281C105.286 350.281 103.97 350.827 103 351.797C102.029 352.767 101.484 354.084 101.484 355.456C101.484 356.934 102.071 358.351 103.116 359.396C104.161 360.441 105.578 361.029 107.056 361.029C108.463 360.928 109.781 360.296 110.741 359.262C111.701 358.228 112.233 356.867 112.23 355.456Z" fill="#E0BDC7"/>
<path d="M122.577 398.445C122.584 397.77 122.346 397.116 121.907 396.603C121.467 396.091 120.857 395.755 120.189 395.659C120.189 395.659 117.403 395.659 117.403 398.445C117.5 399.113 117.835 399.723 118.348 400.163C118.86 400.602 119.514 400.84 120.189 400.833C120.822 400.833 121.43 400.582 121.878 400.134C122.325 399.686 122.577 399.078 122.577 398.445Z" fill="#E0BDC7"/>
<path d="M147.65 406.804C147.548 405.29 146.875 403.872 145.766 402.837C144.658 401.802 143.197 401.228 141.68 401.231C140.097 401.231 138.578 401.86 137.459 402.98C136.339 404.1 135.71 405.618 135.71 407.202C135.71 408.786 136.339 410.304 137.459 411.424C138.578 412.544 140.097 413.173 141.68 413.173C143.299 413.071 144.818 412.356 145.927 411.172C147.037 409.989 147.653 408.426 147.65 406.804Z" fill="#E0BDC7"/>
<path d="M161.181 413.173C161.181 412.328 160.845 411.518 160.248 410.921C159.651 410.324 158.841 409.988 157.997 409.988C157.595 409.984 157.197 410.067 156.83 410.231C156.463 410.396 156.136 410.637 155.872 410.94C155.607 411.242 155.411 411.598 155.297 411.984C155.183 412.369 155.154 412.775 155.211 413.173C155.143 413.606 155.178 414.05 155.314 414.467C155.45 414.885 155.683 415.264 155.993 415.575C156.304 415.885 156.683 416.118 157.1 416.254C157.518 416.39 157.961 416.425 158.395 416.357C159.169 416.26 159.88 415.882 160.393 415.295C160.907 414.708 161.187 413.953 161.181 413.173Z" fill="#E0BDC7"/>
<path d="M169.14 462.531C169.14 462.531 169.538 463.327 169.14 462.531V462.531Z" fill="#E0BDC7"/>
<path d="M215.306 469.297C215.306 467.714 214.677 466.195 213.557 465.075C212.438 463.956 210.919 463.327 209.336 463.327C207.823 463.428 206.404 464.101 205.37 465.21C204.335 466.319 203.761 467.78 203.764 469.297C203.762 470.064 203.918 470.823 204.223 471.526C204.528 472.229 204.974 472.862 205.534 473.385C206.094 473.909 206.757 474.31 207.479 474.566C208.202 474.821 208.969 474.925 209.734 474.87C211.212 474.87 212.629 474.283 213.674 473.238C214.719 472.193 215.306 470.775 215.306 469.297Z" fill="#E0BDC7"/>
<path d="M242.766 472.084C242.666 470.887 242.119 469.772 241.234 468.961C240.349 468.149 239.191 467.701 237.991 467.705C236.83 467.705 235.716 468.166 234.895 468.988C234.074 469.809 233.613 470.922 233.613 472.084C233.61 472.694 233.735 473.298 233.98 473.857C234.224 474.416 234.583 474.917 235.032 475.329C235.482 475.742 236.013 476.055 236.591 476.25C237.169 476.446 237.781 476.518 238.388 476.462C239.55 476.462 240.663 476.001 241.484 475.18C242.305 474.359 242.766 473.245 242.766 472.084Z" fill="#E0BDC7"/>
<path d="M228.439 519.849C228.341 519.076 227.963 518.365 227.377 517.851C226.79 517.337 226.035 517.057 225.255 517.063C224.545 517.147 223.885 517.468 223.38 517.974C222.874 518.479 222.554 519.14 222.469 519.849C222.567 520.623 222.945 521.334 223.531 521.848C224.118 522.362 224.873 522.642 225.653 522.636C226.019 522.636 226.381 522.564 226.719 522.424C227.057 522.284 227.364 522.078 227.623 521.82C227.882 521.561 228.087 521.254 228.227 520.916C228.367 520.578 228.439 520.215 228.439 519.849Z" fill="#E0BDC7"/>
<path d="M277.788 490.792C277.788 489.631 277.327 488.517 276.506 487.696C275.685 486.875 274.572 486.413 273.411 486.413C272.246 486.592 271.178 487.163 270.382 488.032C269.586 488.9 269.11 490.014 269.033 491.19C269.03 491.748 269.144 492.3 269.369 492.811C269.593 493.322 269.923 493.78 270.335 494.155C270.748 494.531 271.235 494.815 271.765 494.99C272.295 495.165 272.855 495.226 273.411 495.17C274.572 495.17 275.685 494.709 276.506 493.888C277.327 493.067 277.788 491.953 277.788 490.792Z" fill="#E0BDC7"/>
<path d="M282.962 538.159C282.962 537.104 282.543 536.091 281.796 535.345C281.05 534.598 280.038 534.179 278.982 534.179C277.927 534.179 276.914 534.598 276.168 535.345C275.422 536.091 275.002 537.104 275.002 538.159C275.002 539.215 275.422 540.228 276.168 540.974C276.914 541.721 277.927 542.14 278.982 542.14C280.038 542.14 281.05 541.721 281.796 540.974C282.543 540.228 282.962 539.215 282.962 538.159Z" fill="#E0BDC7"/>
<path d="M289.727 565.227C289.626 563.713 288.953 562.295 287.844 561.26C286.736 560.225 285.275 559.651 283.758 559.654C282.28 559.654 280.863 560.241 279.818 561.286C278.773 562.331 278.186 563.749 278.186 565.227C278.287 566.74 278.961 568.159 280.069 569.194C281.178 570.229 282.639 570.803 284.156 570.799C285.633 570.799 287.051 570.212 288.096 569.167C289.14 568.122 289.727 566.705 289.727 565.227Z" fill="#E0BDC7"/>
<path d="M327.933 551.693C327.832 550.18 327.159 548.761 326.05 547.726C324.941 546.691 323.48 546.117 321.964 546.12C321.232 546.12 320.507 546.265 319.831 546.545C319.155 546.825 318.541 547.235 318.024 547.753C317.507 548.27 317.096 548.884 316.816 549.561C316.536 550.237 316.392 550.961 316.392 551.693C316.493 553.207 317.166 554.625 318.275 555.66C319.384 556.695 320.845 557.269 322.362 557.266C323.093 557.266 323.818 557.122 324.494 556.842C325.17 556.562 325.784 556.151 326.301 555.634C326.819 555.116 327.229 554.502 327.509 553.826C327.789 553.15 327.933 552.425 327.933 551.693Z" fill="#E0BDC7"/>
<path d="M341.066 580.352C340.969 579.579 340.591 578.868 340.004 578.354C339.417 577.84 338.662 577.56 337.882 577.566C337.449 577.498 337.005 577.534 336.588 577.67C336.171 577.805 335.791 578.038 335.481 578.349C335.171 578.659 334.938 579.038 334.802 579.456C334.666 579.873 334.631 580.317 334.699 580.75C334.695 581.152 334.777 581.55 334.942 581.917C335.106 582.284 335.347 582.611 335.65 582.876C335.952 583.141 336.308 583.337 336.694 583.451C337.079 583.565 337.485 583.594 337.882 583.537C338.727 583.537 339.537 583.201 340.134 582.604C340.731 582.007 341.066 581.197 341.066 580.352Z" fill="#E0BDC7"/>
<path d="M374.497 558.062C374.502 557.177 374.18 556.321 373.592 555.66C373.004 554.998 372.192 554.578 371.313 554.479C370.363 554.479 369.452 554.857 368.78 555.529C368.108 556.201 367.731 557.112 367.731 558.062C367.731 559.012 368.108 559.923 368.78 560.595C369.452 561.267 370.363 561.644 371.313 561.644C371.767 561.648 372.216 561.554 372.631 561.37C373.045 561.186 373.416 560.915 373.717 560.576C374.019 560.236 374.244 559.837 374.379 559.403C374.513 558.97 374.553 558.512 374.497 558.062Z" fill="#E0BDC7"/>
<path d="M400.763 588.313C400.763 587.447 400.506 586.601 400.025 585.881C399.544 585.161 398.86 584.6 398.06 584.268C397.261 583.937 396.38 583.85 395.531 584.019C394.682 584.188 393.902 584.605 393.29 585.217C392.677 585.83 392.26 586.61 392.091 587.459C391.923 588.309 392.009 589.189 392.341 589.989C392.672 590.789 393.233 591.473 393.953 591.954C394.673 592.435 395.519 592.692 396.385 592.692C397.546 592.692 398.66 592.231 399.481 591.409C400.302 590.588 400.763 589.475 400.763 588.313Z" fill="#E0BDC7"/>
</g>
<defs>
<clipPath id="clip0_30_76">
<rect width="1574" height="1712" fill="white"/>
</clipPath>
</defs>
</svg>
