<svg width="330" height="1712" viewBox="0 0 330 1712" fill="none" xmlns="http://www.w3.org/2000/svg">
<g clip-path="url(#clip0_30_390)">
<path d="M-164.685 1403.12C-151.919 1383.82 -134.774 1367.81 -114.649 1356.4C-94.5231 1344.98 -71.9861 1338.49 -48.8742 1337.44C-25.8568 1336.39 -2.9252 1340.9 17.986 1350.57C39.4977 1359 57.1898 1374.99 67.7331 1395.55C73.5665 1411.41 74.2042 1428.71 69.5537 1444.96C64.9032 1461.2 55.2056 1475.54 41.8645 1485.91C35.8226 1489.18 29.1776 1491.19 22.3349 1491.8C15.4922 1492.42 8.59561 1491.63 2.0668 1489.49C-1.66576 1488.48 -5.15924 1486.74 -8.20903 1484.36C-11.2588 1481.98 -13.8035 1479.02 -15.6939 1475.65C-17.5842 1472.27 -18.7823 1468.56 -19.2178 1464.71C-19.6533 1460.87 -19.3173 1456.98 -18.2298 1453.27C-22.5453 1456.83 -25.8474 1461.46 -27.8037 1466.7C-29.7599 1471.94 -30.3015 1477.61 -29.3734 1483.12C-28.3797 1489.28 -25.9529 1495.12 -22.2891 1500.17C-18.6252 1505.21 -13.8266 1509.33 -8.28038 1512.18C2.16638 1518.29 14.2141 1521.1 26.2858 1520.25C38.3575 1519.4 49.8906 1514.92 59.3756 1507.4C74.6399 1492.55 84.1689 1472.79 86.2805 1451.59C88.3922 1430.4 82.9509 1409.14 70.917 1391.57C58.8727 1371.29 40.1651 1355.81 17.986 1347.79C-3.48613 1338.16 -26.9846 1333.92 -50.4662 1335.45C-74.257 1336.47 -97.4707 1343.09 -118.218 1354.78C-138.965 1366.47 -156.659 1382.9 -169.859 1402.72L-164.685 1403.12Z" fill="#E0BDC7"/>
<path d="M179.167 1199.71C179.772 1197.18 179.36 1194.51 178.021 1192.28C176.682 1190.05 174.522 1188.43 172.003 1187.77C170.749 1187.41 169.435 1187.29 168.136 1187.43C166.837 1187.58 165.579 1187.97 164.433 1188.6C163.288 1189.23 162.277 1190.08 161.459 1191.1C160.641 1192.11 160.032 1193.28 159.666 1194.54C159.307 1195.82 159.208 1197.16 159.376 1198.48C159.543 1199.8 159.974 1201.07 160.642 1202.22C161.31 1203.37 162.201 1204.38 163.264 1205.18C164.327 1205.98 165.539 1206.56 166.829 1206.88C169.412 1207.5 172.133 1207.1 174.43 1205.76C176.726 1204.43 178.422 1202.26 179.167 1199.71Z" fill="#E0BDC7"/>
<path d="M181.554 1190.56C209.096 1195.47 237.455 1192.81 263.601 1182.85C289.747 1172.9 312.697 1156.02 330 1134.04C302.461 1129.21 274.13 1131.92 248.001 1141.87C221.871 1151.81 198.914 1168.64 181.554 1190.56Z" fill="#E0BDC7"/>
<path d="M181.554 1202.9C194.376 1224.58 212.852 1242.37 235.004 1254.36C257.157 1266.35 282.152 1272.09 307.315 1270.96C294.527 1249.25 276.058 1231.44 253.897 1219.44C231.737 1207.45 206.724 1201.73 181.554 1202.9Z" fill="#E0BDC7"/>
<path d="M174.789 1208.47C167.141 1229.28 165.435 1251.81 169.863 1273.53C174.291 1295.25 184.679 1315.31 199.862 1331.47C207.408 1310.59 208.985 1288.02 204.416 1266.29C199.846 1244.56 189.311 1224.54 173.993 1208.47H174.789Z" fill="#E0BDC7"/>
<path d="M173.197 1184.99C192.872 1169.38 207.803 1148.6 216.311 1124.97C224.818 1101.34 226.564 1075.81 221.352 1051.24C201.818 1066.86 187.007 1087.6 178.574 1111.14C170.141 1134.69 168.417 1160.12 173.595 1184.59L173.197 1184.99Z" fill="#E0BDC7"/>
<path d="M98.3774 1076.32C98.5178 1098.61 104.892 1120.41 116.778 1139.26C128.664 1158.11 145.588 1173.26 165.635 1183C165.495 1160.71 159.121 1138.9 147.235 1120.05C135.349 1101.2 118.425 1086.05 98.3774 1076.32Z" fill="#E0BDC7"/>
<path d="M50.2219 1170.26C48.5055 1165.38 45.7953 1160.9 42.2625 1157.12C40.5918 1155.09 38.5359 1153.42 36.2135 1152.19C33.891 1150.96 31.3481 1150.2 28.7314 1149.96C28.6337 1154.01 27.5401 1157.97 25.5475 1161.5C25.5475 1165.08 21.9655 1167.87 20.3736 1171.45C18.7038 1174.76 17.3706 1178.23 16.3939 1181.8C15.2534 1185.84 14.4547 1189.97 14.0061 1194.14C12.9708 1210.51 16.7032 1226.82 24.7514 1241.11C33.0233 1236.85 40.0275 1230.49 45.058 1222.66C50.0885 1214.84 52.9678 1205.82 53.4058 1196.53C53.8086 1192.29 53.8086 1188.03 53.4058 1183.79C53.1 1179.14 52.0241 1174.56 50.2219 1170.26Z" fill="#E0BDC7"/>
<path d="M39.8747 1243.5C71.4001 1226.24 103.964 1210.95 137.379 1197.72C148.522 1192.95 171.207 1184.59 171.207 1184.59L136.981 1196.13C103.082 1208.68 69.9875 1223.3 37.8846 1239.92C-66.35 1292.69 -156.317 1369.84 -224.382 1464.81C-263.67 1520.39 -294.64 1581.4 -316.315 1645.92H-303.182C-282.439 1583.84 -253.245 1524.9 -216.423 1470.78C-150.248 1375.74 -62.3915 1297.83 39.8747 1243.5Z" fill="#E0BDC7"/>
<path d="M169.615 387.3C150.535 412.671 124.861 432.322 95.3892 444.113C65.9173 455.904 33.7765 459.383 2.46484 454.172C21.5752 428.834 47.2524 409.209 76.7158 397.421C106.179 385.634 138.305 382.134 169.615 387.3Z" fill="#E0BDC7"/>
<path d="M42.6603 291.768C49.2015 319.576 47.9845 348.646 39.1421 375.81C30.2998 402.973 14.1714 427.187 -7.48487 445.813C-14.163 418.009 -13.013 388.898 -4.16192 361.708C4.68913 334.518 20.8955 310.31 42.6603 291.768Z" fill="#E0BDC7"/>
<path d="M144.543 542.14C116.007 543.753 87.5792 537.474 62.3764 523.993C37.1735 510.512 16.1697 490.348 1.66895 465.715C30.1975 464.147 58.6087 470.445 83.8034 483.922C108.998 497.399 130.008 517.537 144.543 542.14Z" fill="#E0BDC7"/>
<path d="M25.5474 615.381C8.17062 596.865 -3.7997 573.941 -9.06209 549.098C-14.3245 524.255 -12.6776 498.444 -4.30084 474.472C13.1534 492.94 25.1751 515.866 30.4414 540.727C35.7076 565.588 34.0142 591.42 25.5474 615.381Z" fill="#E0BDC7"/>
<path fill-rule="evenodd" clip-rule="evenodd" d="M-17.4343 469.695C-16.1608 470.479 -14.7425 470.998 -13.2642 471.221C-11.786 471.445 -10.2779 471.369 -8.82969 470.997C-7.38146 470.626 -6.02274 469.967 -4.83449 469.059C-3.64624 468.152 -2.65286 467.015 -1.91325 465.715C-0.329996 463.181 0.182201 460.122 -0.489515 457.211C-1.16123 454.3 -2.96169 451.775 -5.49489 450.191C-8.02809 448.608 -11.0867 448.095 -13.9975 448.767C-16.9083 449.439 -19.4327 451.24 -21.016 453.774C-21.8806 455.037 -22.4757 456.466 -22.764 457.97C-23.0522 459.473 -23.0278 461.021 -22.6917 462.515C-22.3556 464.009 -21.7152 465.417 -20.8107 466.653C-19.9062 467.888 -18.7568 468.924 -17.4343 469.695Z" fill="#E0BDC7"/>
<path d="M29.9253 1129.66C29.875 1130.34 29.6906 1131 29.383 1131.61C29.0754 1132.22 28.6505 1132.76 28.1327 1133.2C27.6149 1133.65 27.0144 1133.99 26.3658 1134.2C25.7173 1134.41 25.0335 1134.49 24.3537 1134.43C23.6876 1134.39 23.0385 1134.2 22.4484 1133.89C21.8583 1133.58 21.3401 1133.14 20.9275 1132.62C20.515 1132.09 20.2173 1131.49 20.0534 1130.84C19.8895 1130.19 19.8631 1129.52 19.976 1128.86C20.0263 1128.18 20.2103 1127.52 20.5179 1126.91C20.8256 1126.3 21.2508 1125.76 21.7686 1125.31C22.2864 1124.87 22.8869 1124.53 23.5354 1124.32C24.184 1124.11 24.8677 1124.03 25.5476 1124.08C26.2137 1124.13 26.8627 1124.32 27.4528 1124.63C28.0429 1124.94 28.5609 1125.37 28.9734 1125.9C29.3859 1126.42 29.6839 1127.03 29.8479 1127.68C30.0118 1128.32 30.0382 1129 29.9253 1129.66ZM29.9253 1129.66C30.0433 1128.56 29.7392 1127.45 29.0745 1126.56C28.4098 1125.68 27.4339 1125.08 26.3434 1124.88C25.768 1124.83 25.1876 1124.89 24.6355 1125.06C24.0833 1125.23 23.5704 1125.51 23.1264 1125.88C22.6824 1126.25 22.3164 1126.7 22.0488 1127.21C21.7813 1127.73 21.6178 1128.29 21.5679 1128.86C21.5132 1129.44 21.5729 1130.02 21.7437 1130.57C21.9145 1131.12 22.1929 1131.63 22.5629 1132.08C22.9329 1132.52 23.3869 1132.89 23.8992 1133.16C24.4114 1133.42 24.9718 1133.59 25.5476 1133.64C26.5326 1133.54 27.4455 1133.08 28.1078 1132.34C28.7701 1131.6 29.1341 1130.65 29.1292 1129.66H29.9253Z" fill="#E0BDC7"/>
<path d="M33.1088 39.0086C30.6611 39.1779 28.3196 40.0732 26.3833 41.5802C24.447 43.0872 23.0039 45.1374 22.2384 47.4689C21.4729 49.8003 21.4198 52.3071 22.086 54.6688C22.7521 57.0305 24.1071 59.14 25.9779 60.7276C27.8487 62.3153 30.1504 63.3089 32.5887 63.5817C35.0269 63.8544 37.4911 63.3939 39.6664 62.2588C41.8416 61.1238 43.6292 59.3659 44.8005 57.2096C45.9718 55.0534 46.4737 52.5969 46.2421 50.1539C46.1433 48.548 45.721 46.9787 45.0006 45.5401C44.2802 44.1015 43.2765 42.8234 42.0499 41.7824C40.8233 40.7415 39.3989 39.9592 37.8625 39.4826C36.326 39.0059 34.7091 38.8447 33.1088 39.0086ZM33.1088 61.2992C31.0625 61.5297 28.9939 61.1443 27.1679 60.1923C25.3418 59.2404 23.8414 57.7651 22.8584 55.9553C21.8754 54.1455 21.4546 52.0835 21.6499 50.0332C21.8453 47.9829 22.648 46.0375 23.9551 44.446C25.2622 42.8545 27.0143 41.6892 28.9873 41.0994C30.9602 40.5095 33.0645 40.5218 35.0305 41.1348C36.9964 41.7477 38.7348 42.9334 40.0231 44.5401C41.3115 46.1468 42.0911 48.1015 42.2624 50.1539C42.6447 52.5673 42.1258 55.037 40.8047 57.0924C39.4836 59.1478 37.4527 60.6452 35.0988 61.2992H33.1088Z" fill="#E0BDC7"/>
<path d="M36.2929 139.714C35.891 139.71 35.4931 139.793 35.1263 139.957C34.7595 140.122 34.4324 140.363 34.1678 140.666C33.9031 140.968 33.707 141.325 33.593 141.71C33.479 142.095 33.4496 142.501 33.5071 142.899C33.3284 143.38 33.2688 143.898 33.3334 144.408C33.398 144.917 33.5849 145.403 33.8781 145.825C34.1713 146.247 34.5622 146.591 35.0173 146.829C35.4725 147.067 35.9785 147.191 36.492 147.191C37.0056 147.191 37.5113 147.067 37.9664 146.829C38.4216 146.591 38.8124 146.247 39.1057 145.825C39.3989 145.403 39.5858 144.917 39.6504 144.408C39.715 143.898 39.6554 143.38 39.4767 142.899C39.4767 142.899 37.8847 139.316 36.2929 139.714ZM36.2929 145.287C36.2929 145.287 33.5071 145.287 33.5071 142.899C33.5071 140.511 33.507 140.113 35.8948 140.113C36.5696 140.106 37.2242 140.344 37.7366 140.783C38.249 141.222 38.5845 141.833 38.6809 142.501C38.6081 143.094 38.3878 143.66 38.0402 144.147C37.6927 144.634 37.2288 145.026 36.6909 145.287H36.2929Z" fill="#E0BDC7"/>
<path d="M27.1394 208.179C25.2602 208.342 23.4711 209.058 21.9983 210.236C20.5254 211.415 19.4344 213.004 18.8629 214.801C18.2914 216.599 18.2651 218.526 18.787 220.339C19.309 222.152 20.3558 223.77 21.7957 224.989C23.2357 226.207 25.0042 226.972 26.8783 227.187C28.7523 227.402 30.6479 227.057 32.3261 226.195C34.0043 225.334 35.3902 223.995 36.3086 222.347C37.2269 220.699 37.6368 218.816 37.4867 216.936C37.3864 215.68 37.0386 214.456 36.4634 213.335C35.8882 212.213 35.0969 211.217 34.1351 210.403C33.1733 209.589 32.0602 208.974 30.8595 208.592C29.6588 208.21 28.3946 208.07 27.1394 208.179ZM27.1394 225.693C26.0932 225.803 25.0353 225.704 24.0274 225.403C23.0196 225.101 22.0816 224.603 21.2674 223.937C20.4532 223.27 19.779 222.449 19.2841 221.521C18.7891 220.593 18.4832 219.575 18.3838 218.528C18.2353 216.964 18.5529 215.391 19.2965 214.007C20.0401 212.623 21.1766 211.49 22.5627 210.751C23.9488 210.011 25.5226 209.699 27.086 209.852C28.6493 210.006 30.1323 210.619 31.3481 211.614C32.5639 212.609 33.4579 213.941 33.918 215.443C34.3782 216.946 34.3838 218.55 33.9338 220.056C33.4838 221.561 32.5984 222.9 31.3894 223.903C30.1803 224.906 28.7017 225.529 27.1394 225.693Z" fill="#E0BDC7"/>
<path d="M117.082 922.673C116.983 921.688 116.521 920.775 115.785 920.112C115.049 919.45 114.093 919.086 113.103 919.091C112.299 919.095 111.516 919.342 110.856 919.799C110.196 920.257 109.689 920.903 109.403 921.654C109.118 922.405 109.065 923.225 109.254 924.006C109.443 924.787 109.863 925.492 110.46 926.03C111.057 926.567 111.803 926.911 112.599 927.017C113.395 927.122 114.205 926.985 114.922 926.621C115.638 926.258 116.228 925.687 116.614 924.982C116.999 924.277 117.163 923.472 117.082 922.673Z" fill="#E0BDC7"/>
<path d="M117.082 965.662C117.079 964.622 116.763 963.607 116.175 962.75C115.587 961.893 114.754 961.232 113.785 960.855C112.817 960.478 111.757 960.401 110.744 960.636C109.731 960.87 108.812 961.403 108.107 962.167C107.402 962.931 106.943 963.89 106.791 964.919C106.638 965.947 106.799 966.998 107.253 967.934C107.706 968.869 108.43 969.647 109.332 970.165C110.233 970.682 111.27 970.917 112.307 970.837C112.969 970.839 113.624 970.703 114.231 970.439C114.838 970.174 115.383 969.786 115.832 969.3C116.282 968.813 116.624 968.239 116.84 967.612C117.055 966.986 117.137 966.322 117.082 965.662Z" fill="#E0BDC7"/>
<path d="M103.949 982.38C103.949 981.43 103.572 980.519 102.9 979.847C102.228 979.175 101.317 978.797 100.367 978.797C99.3822 978.896 98.4694 979.359 97.8071 980.095C97.1448 980.831 96.7807 981.788 96.7857 982.778C96.7857 983.728 97.163 984.639 97.8347 985.311C98.5064 985.983 99.4174 986.36 100.367 986.36C101.321 986.187 102.189 985.702 102.838 984.982C103.486 984.261 103.877 983.346 103.949 982.38Z" fill="#E0BDC7"/>
<path d="M110.317 1001.88C110.317 1000.93 109.939 1000.02 109.267 999.351C108.596 998.679 107.685 998.302 106.735 998.302C106.229 998.299 105.728 998.403 105.266 998.607C104.803 998.812 104.389 999.112 104.05 999.488C103.712 999.864 103.457 1000.31 103.302 1000.79C103.148 1001.27 103.097 1001.78 103.153 1002.28C103.149 1002.74 103.243 1003.19 103.427 1003.6C103.611 1004.02 103.882 1004.39 104.222 1004.69C104.561 1004.99 104.96 1005.21 105.394 1005.35C105.827 1005.48 106.285 1005.52 106.735 1005.47C107.685 1005.47 108.596 1005.09 109.267 1004.42C109.939 1003.75 110.317 1002.83 110.317 1001.88Z" fill="#E0BDC7"/>
<path d="M68.9269 1022.18C68.9269 1021.45 68.6335 1020.74 68.111 1020.21C67.5886 1019.69 66.8799 1019.4 66.141 1019.4C65.3262 1019.48 64.5658 1019.85 63.9864 1020.43C63.407 1021.01 63.0435 1021.77 62.957 1022.58C63.0545 1023.36 63.4326 1024.07 64.0195 1024.58C64.6063 1025.09 65.3612 1025.38 66.141 1025.37C66.9147 1025.27 67.6258 1024.89 68.1393 1024.31C68.6528 1023.72 68.933 1022.96 68.9269 1022.18Z" fill="#E0BDC7"/>
<path d="M70.9167 1053.63C70.8259 1052.5 70.3355 1051.44 69.5334 1050.64C68.7313 1049.83 67.6697 1049.34 66.5389 1049.25C65.3779 1049.25 64.2644 1049.71 63.4434 1050.53C62.6224 1051.36 62.1611 1052.47 62.1611 1053.63C62.1611 1054.79 62.6224 1055.91 63.4434 1056.73C64.2644 1057.55 65.3779 1058.01 66.5389 1058.01C67.7 1058.01 68.8135 1057.55 69.6345 1056.73C70.4555 1055.91 70.9167 1054.79 70.9167 1053.63Z" fill="#E0BDC7"/>
<path d="M80.8664 1077.91C80.8664 1077.17 80.5729 1076.46 80.0505 1075.94C79.5281 1075.42 78.8194 1075.12 78.0806 1075.12C77.3069 1075.22 76.5959 1075.6 76.0824 1076.19C75.5689 1076.77 75.2887 1077.53 75.2948 1078.31C75.2948 1079.05 75.5882 1079.76 76.1106 1080.28C76.6331 1080.8 77.3417 1081.1 78.0806 1081.1C78.8542 1081 79.5653 1080.62 80.0787 1080.03C80.5922 1079.45 80.8725 1078.69 80.8664 1077.91Z" fill="#E0BDC7"/>
<path d="M47.4362 1088.66C47.4362 1087.39 46.9332 1086.18 46.0376 1085.28C45.142 1084.39 43.9272 1083.88 42.6606 1083.88C41.4245 1083.97 40.2624 1084.51 39.3859 1085.38C38.5094 1086.26 37.9767 1087.42 37.8848 1088.66C37.8848 1089.29 38.0082 1089.91 38.2482 1090.49C38.4882 1091.07 38.8401 1091.59 39.2836 1092.04C39.7271 1092.48 40.2536 1092.83 40.833 1093.07C41.4125 1093.31 42.0335 1093.44 42.6606 1093.44C43.2878 1093.44 43.9088 1093.31 44.4882 1093.07C45.0676 1092.83 45.5942 1092.48 46.0376 1092.04C46.4811 1091.59 46.8327 1091.07 47.0727 1090.49C47.3127 1089.91 47.4362 1089.29 47.4362 1088.66Z" fill="#E0BDC7"/>
<path d="M59.3756 1136.03C59.2782 1135.25 58.9001 1134.54 58.3132 1134.03C57.7264 1133.51 56.9716 1133.23 56.1918 1133.24C55.7899 1133.24 55.3921 1133.32 55.0253 1133.48C54.6585 1133.65 54.3314 1133.89 54.0667 1134.19C53.8021 1134.49 53.606 1134.85 53.492 1135.24C53.3779 1135.62 53.3486 1136.03 53.406 1136.42C53.406 1137.16 53.6994 1137.87 54.2219 1138.39C54.7443 1138.92 55.453 1139.21 56.1918 1139.21C56.6254 1139.28 57.0691 1139.24 57.4865 1139.11C57.9038 1138.97 58.2828 1138.74 58.5932 1138.43C58.9035 1138.12 59.1364 1137.74 59.2724 1137.32C59.4083 1136.9 59.4436 1136.46 59.3756 1136.03Z" fill="#E0BDC7"/>
<path d="M46.6403 1152.74C46.6431 1152.19 46.5286 1151.63 46.3042 1151.12C46.0798 1150.61 45.7505 1150.15 45.3377 1149.78C44.9249 1149.4 44.4377 1149.12 43.9079 1148.94C43.3782 1148.77 42.8176 1148.71 42.2625 1148.76C41.1015 1148.76 39.988 1149.23 39.167 1150.05C38.346 1150.87 37.8848 1151.98 37.8848 1153.14C37.8848 1154.3 38.346 1155.42 39.167 1156.24C39.988 1157.06 41.1015 1157.52 42.2625 1157.52C42.8725 1157.52 43.4763 1157.4 44.0351 1157.15C44.594 1156.91 45.0956 1156.55 45.5078 1156.1C45.9199 1155.65 46.2336 1155.12 46.4287 1154.54C46.6237 1153.96 46.6958 1153.35 46.6403 1152.74Z" fill="#E0BDC7"/>
<path d="M15.996 1157.52C15.996 1156.57 15.6187 1155.66 14.947 1154.99C14.2753 1154.32 13.3643 1153.94 12.4144 1153.94C11.535 1154.04 10.7232 1154.46 10.1354 1155.12C9.54748 1155.78 9.22506 1156.64 9.23054 1157.52C9.23054 1157.99 9.3232 1158.46 9.5032 1158.89C9.6832 1159.33 9.94698 1159.72 10.2796 1160.05C10.6122 1160.39 11.007 1160.65 11.4416 1160.83C11.8761 1161.01 12.3421 1161.1 12.8125 1161.1C13.2663 1161.11 13.7155 1161.01 14.1302 1160.83C14.5449 1160.64 14.9154 1160.37 15.2169 1160.03C15.5184 1159.69 15.7438 1159.3 15.8782 1158.86C16.0126 1158.43 16.0528 1157.97 15.996 1157.52Z" fill="#E0BDC7"/>
</g>
<defs>
<clipPath id="clip0_30_390">
<rect width="1574" height="1712" fill="white" transform="translate(-1244)"/>
</clipPath>
</defs>
</svg>
